<?xml version="1.0" encoding="utf-8"?>
<svg version="1.1" id="Capa_1" xmlns="http://www.w3.org/2000/svg" xmlns:xlink="http://www.w3.org/1999/xlink" x="0px" y="0px"
	 width="48px" height="48px" viewBox="0 0 48 48" enable-background="new 0 0 48 48" xml:space="preserve">
<g>
		<linearGradient id="SVGID_1_" gradientUnits="userSpaceOnUse" x1="23.1958" y1="7.061" x2="23.1958" y2="48.3351" gradientTransform="matrix(1 0 0 -1 0 49)">
		<stop  offset="0" style="stop-color:#FFFFFF"/>
		<stop  offset="0.297" style="stop-color:#C1C1C1"/>
		<stop  offset="0.5811" style="stop-color:#9C9C9C"/>
		<stop  offset="0.8324" style="stop-color:#A8A8A8"/>
		<stop  offset="1" style="stop-color:#EAEAEA"/>
	</linearGradient>
	<path fill="url(#SVGID_1_)" d="M27.06,3.059c-4.426-0.094-8.855-0.027-13.278,0.203c-3.167,0.168-5.425,2.808-6.781,7.792
		C5.108,18.282,3.216,25.51,1.323,32.738c-1.355,4.996,0.68,7.24,6.114,6.949c10.499-0.545,21.02-0.545,31.518,0
		c5.435,0.291,7.469-1.953,6.114-6.949c-1.893-7.229-3.785-14.456-5.678-21.684c-1.355-4.984-3.613-7.624-6.78-7.792
		c-0.241-0.013-0.482-0.024-0.723-0.036C30.279,3.149,28.67,3.093,27.06,3.059z"/>
	<path fill="#1D1D1B" d="M45.693,29.006c-1.592-5.181-3.229-10.366-4.884-15.547c-0.86-2.707-1.837-5.426-3.183-8.073
		c-2.383-4.684-6.928-4.468-7.426-4.446c-0.226-0.114-12.373-1.13-16.164-0.224C9.59,1.622,7.167,8.604,5.604,14.75
		c-1.258,4.962-2.398,9.915-3.718,14.891c-0.949,3.688-2.661,8.041,0.381,10.119c2.13,1.443,5.56,1.045,8.489,1.107
		c1.87,0.039,4.662,0.123,6.995,1.289c3.633,1.818,6.25,5.625,6.25,5.625s2.319-1.623,3.063-2.25
		c3.896-3.291,6.063-3.582,11.481-3.611c3.51-0.018,7.095-0.17,8.394-2.854C48.271,36.324,46.756,32.412,45.693,29.006z
		 M40.561,37.018c-1.656,0.654-3.923,0.334-5.857,0.307c-2.596-0.041-5.2-0.059-7.809-0.002c-6.262,0.135-12.647,0.85-19.027,1.234
		c-4.359,0.266-5.873-2.256-4.735-6.354c1.163-4.324,2.485-8.651,3.795-12.977c1.026-3.506,2.036-9.117,4.041-12.278
		c1.855-2.992,4.65-2.3,6.47-2.427c3.007-0.353,14.888-0.658,15.26-0.428c2.286,0.668,3.711,3.274,4.475,6.736
		c1.105,5.134,2.205,10.268,3.347,15.409C41.187,29.463,43.861,35.715,40.561,37.018z"/>
</g>
<path d="M8.169,34.275C9.87,27.777,15.235,9.843,17.06,8.156c5.711-5.285,14.806,0.404,16.559,6.682
	c1.898,6.798-1.802,15.733-9.521,16.502c-1.758,0.175-8.438-0.879-7.445-3.867c0.528-1.593,1.986-0.856,2.99-0.405
	c1.734,0.779,3.711,0.832,5.445,0.024c6.02-2.886,6.04-13.472-0.679-15.38c-3.825-1.086-5.075,2.708-5.953,5.321
	c-0.768,2.285-6.788,17.926-7.807,18.728C9.505,36.661,7.792,35.709,8.169,34.275C9.575,28.9,7.985,34.974,8.169,34.275z"/>
</svg>
