<?xml version="1.0" encoding="utf-8"?>
<svg version="1.1" id="Capa_1_copia_3" xmlns="http://www.w3.org/2000/svg" xmlns:xlink="http://www.w3.org/1999/xlink" x="0px"
	 y="0px" width="32px" height="32px" viewBox="0 0 48 48" xml:space="preserve">
  <linearGradient id="grad1" x2="0" y2="100%">
    <stop offset="0"    stop-color="rgb(40,40,40)"/>
    <stop offset="100%" stop-color="rgb(140,140,140)"/>
  </linearGradient>
  <linearGradient id="grad2" x2="0" y2="100%">
    <stop offset="0"    stop-color="rgb(96,96,96)"/>
    <stop offset="100%" stop-color="rgb(40,40,40)"/>
  </linearGradient>
	<path fill="url(#grad1)" d="M45.693,33.057c-1.592-5.912-3.229-11.831-4.885-17.744c-0.859-3.09-1.836-6.193-3.185-9.214
		C35.242,0.754,30.697,1,30.199,1.025c-0.227-0.13-12.373-1.29-16.164-0.256C9.59,1.803,7.167,9.771,5.604,16.786
		C4.346,22.449,3.206,28.102,1.886,33.78c-0.949,4.21-2.661,9.178,0.381,11.549c2.13,1.647,5.56,1.192,8.489,1.265
		c1.87,0.045,22.371,1.234,27.789,1.201c3.51-0.021,7.096-0.193,8.395-3.257C48.271,41.408,46.756,36.943,45.693,33.057z
		 M40.561,42.2c-1.656,0.745-3.922,0.381-5.854,0.351c-2.599-0.047-5.2-0.068-7.812-0.002c-6.262,0.153-12.646,0.971-19.024,1.407
		c-4.359,0.305-5.873-2.574-4.735-7.251C4.298,31.77,5.62,26.831,6.93,21.894c1.026-4.001,2.036-10.405,4.041-14.013
		c1.855-3.415,4.65-2.625,6.47-2.77C20.447,4.708,32.328,4.36,32.7,4.622c2.284,0.762,3.711,3.737,4.475,7.688
		c1.104,5.859,2.205,11.719,3.349,17.586C41.188,33.577,43.861,40.713,40.561,42.2z"/>
  <path fill="url(#grad2)" d="M21.874,43.743c-2.765-7.087-9.841-27.029-9.415-29.648c1.331-8.2,12.501-7.946,17.983-3.008
    c5.932,5.348,8.605,15.861,2.718,20.926c-1.342,1.154-7.541,3.918-8.639,0.538c-0.584-1.798,1.094-1.924,2.213-2.063
    c1.936-0.238,3.603-1.301,4.518-3.04c3.125-6.108-3.652-16.109-10.433-14.132c-3.86,1.127-2.458,5.41-1.507,8.37
    c0.831,2.587,5.895,20.735,5.565,22.064C24.51,45.243,22.482,45.31,21.874,43.743C19.586,37.882,22.171,44.508,21.874,43.743z"/>
</svg>
