<?xml version="1.0" encoding="utf-8"?>
<svg version="1.1" id="Capa_1" xmlns="http://www.w3.org/2000/svg" xmlns:xlink="http://www.w3.org/1999/xlink" x="0px" y="0px"
	 width="48px" height="48px" viewBox="0 0 48 48" enable-background="new 0 0 48 48" xml:space="preserve">
<g>
		<linearGradient id="SVGID_1_" gradientUnits="userSpaceOnUse" x1="23.1958" y1="790.8164" x2="23.1958" y2="743.7106" gradientTransform="matrix(1 0 0 1 0 -743)">
		<stop  offset="0" style="stop-color:#FFFFFF"/>
		<stop  offset="0.297" style="stop-color:#C1C1C1"/>
		<stop  offset="0.5811" style="stop-color:#9C9C9C"/>
		<stop  offset="0.8324" style="stop-color:#A8A8A8"/>
		<stop  offset="1" style="stop-color:#EAEAEA"/>
	</linearGradient>
	<path fill="url(#SVGID_1_)" d="M27.061,3.443c-4.427-0.107-8.855-0.031-13.278,0.232c-3.167,0.191-5.425,3.204-6.781,8.893
		c-1.893,8.249-3.785,16.498-5.678,24.748c-1.355,5.702,0.68,8.264,6.114,7.932c10.499-0.622,21.02-0.622,31.518,0
		c5.436,0.332,7.469-2.229,6.113-7.932c-1.893-8.251-3.784-16.499-5.678-24.748c-1.354-5.689-3.613-8.702-6.779-8.893
		c-0.241-0.015-0.482-0.028-0.723-0.042C30.279,3.545,28.67,3.481,27.061,3.443z"/>
	<path fill="#1D1D1B" d="M45.693,33.056c-1.592-5.912-3.229-11.83-4.885-17.743c-0.859-3.09-1.836-6.193-3.183-9.214
		c-2.383-5.345-6.928-5.099-7.426-5.074c-0.226-0.13-12.373-1.29-16.164-0.256C9.59,1.803,7.167,9.771,5.604,16.786
		C4.346,22.449,3.206,28.102,1.886,33.78c-0.949,4.21-2.661,9.178,0.381,11.549c2.13,1.647,5.56,1.193,8.489,1.265
		c1.87,0.044,22.371,1.234,27.789,1.201c3.51-0.021,7.096-0.194,8.395-3.257C48.271,41.408,46.756,36.943,45.693,33.056z
		 M40.561,42.2c-1.656,0.746-3.922,0.381-5.856,0.351c-2.597-0.047-5.2-0.068-7.81-0.002c-6.262,0.153-12.646,0.97-19.026,1.407
		c-4.359,0.305-5.873-2.574-4.735-7.251c1.163-4.936,2.485-9.874,3.795-14.811c1.026-4.001,2.036-10.405,4.041-14.013
		c1.855-3.415,4.65-2.625,6.47-2.77c3.007-0.403,14.888-0.751,15.26-0.489c2.285,0.762,3.711,3.737,4.475,7.688
		c1.105,5.859,2.205,11.719,3.348,17.587C41.188,33.577,43.861,40.713,40.561,42.2z"/>
</g>
<path d="M8.169,39.07c1.701-7.416,7.066-27.885,8.891-29.81c5.711-6.032,14.806,0.461,16.559,7.626
	c1.898,7.758-1.803,17.956-9.521,18.833c-1.758,0.2-8.438-1.003-7.445-4.414c0.528-1.817,1.986-0.976,2.99-0.461
	c1.734,0.89,3.711,0.949,5.445,0.026c6.02-3.293,6.04-15.375-0.679-17.553c-3.825-1.239-5.075,3.091-5.953,6.073
	c-0.768,2.607-6.788,20.459-7.807,21.374C9.505,41.793,7.792,40.706,8.169,39.07C9.575,32.936,7.985,39.868,8.169,39.07z"/>
</svg>
