<?xml version="1.0" encoding="utf-8"?>
<svg version="1.1" id="Capa_4" xmlns="http://www.w3.org/2000/svg" xmlns:xlink="http://www.w3.org/1999/xlink" x="0px" y="0px"
	 width="48px" height="48px" viewBox="0 0 48 48" enable-background="new 0 0 48 48" xml:space="preserve">
<g>
		<radialGradient id="SVGID_1_" cx="33.6338" cy="1592.6084" r="56.4297" gradientTransform="matrix(0.9888 0 0 0.8619 -2.6426 -1331.6469)" gradientUnits="userSpaceOnUse">
		<stop  offset="0.0757" style="stop-color:#E6FDFF"/>
		<stop  offset="0.1435" style="stop-color:#DEFCFF"/>
		<stop  offset="0.2476" style="stop-color:#C9FAFF"/>
		<stop  offset="0.3737" style="stop-color:#A6F7FF"/>
		<stop  offset="0.5217" style="stop-color:#A9E0AF"/>
		<stop  offset="0.6437" style="stop-color:#ACCF71"/>
		<stop  offset="0.657" style="stop-color:#ADD073"/>
		<stop  offset="0.6641" style="stop-color:#B1D17B"/>
		<stop  offset="0.6698" style="stop-color:#B8D489"/>
		<stop  offset="0.6746" style="stop-color:#C2D99C"/>
		<stop  offset="0.679" style="stop-color:#CFDEB5"/>
		<stop  offset="0.683" style="stop-color:#DEE5D3"/>
		<stop  offset="0.6854" style="stop-color:#EAEAEA"/>
	</radialGradient>
	<path fill="url(#SVGID_1_)" d="M27.268,3.437c-4.376-0.092-8.754-0.026-13.128,0.2c-3.131,0.165-5.364,2.762-6.705,7.666
		c-1.872,7.11-3.743,14.221-5.614,21.332c-1.34,4.914,0.672,7.122,6.045,6.836c10.381-0.535,20.785-0.535,31.164,0
		c5.375,0.286,7.386-1.921,6.045-6.836c-1.872-7.113-3.741-14.222-5.614-21.332c-1.338-4.904-3.573-7.5-6.703-7.666
		c-0.237-0.013-0.478-0.024-0.715-0.036C30.45,3.524,28.857,3.469,27.268,3.437z"/>
	<path d="M45.693,29.006c-1.592-5.181-3.229-10.366-4.885-15.547c-0.859-2.707-1.836-5.426-3.184-8.073
		C35.243,0.702,30.698,0.918,30.2,0.94c-0.226-0.114-12.373-1.13-16.164-0.224C9.59,1.622,7.167,8.604,5.604,14.75
		c-1.258,4.962-2.398,9.915-3.718,14.891c-0.949,3.688-2.661,8.041,0.381,10.119c2.13,1.443,5.56,1.045,8.489,1.107
		c1.87,0.039,4.662,0.123,6.995,1.289c3.633,1.818,6.25,5.625,6.25,5.625s2.319-1.623,3.063-2.25
		c3.896-3.291,6.063-3.582,11.479-3.611c3.511-0.018,7.097-0.17,8.396-2.854C48.271,36.324,46.756,32.412,45.693,29.006z
		 M40.561,37.018c-1.656,0.654-3.922,0.334-5.855,0.309c-2.598-0.041-5.2-0.061-7.811-0.002c-6.262,0.135-12.646,0.85-19.025,1.232
		c-4.359,0.268-5.873-2.256-4.735-6.354c1.163-4.324,2.485-8.651,3.795-12.977c1.026-3.506,2.036-9.117,4.041-12.278
		c1.855-2.992,4.65-2.3,6.47-2.427c3.007-0.353,14.888-0.658,15.26-0.428c2.284,0.668,3.711,3.274,4.475,6.736
		c1.104,5.134,2.205,10.268,3.349,15.409C41.188,29.463,43.861,35.715,40.561,37.018z"/>
</g>
<path fill="#0E170F" d="M24.589,39.567c-3.383-5.804-12.247-22.292-12.145-24.775c0.313-7.775,10.771-10.168,16.444-6.959
	c6.145,3.474,9.831,12.414,4.908,18.408c-1.121,1.366-6.596,5.336-8.002,2.518c-0.752-1.501,0.803-2.006,1.831-2.397
	c1.778-0.672,3.216-2.03,3.872-3.827c2.227-6.293-5.232-13.805-11.339-10.412c-3.476,1.931-1.682,5.5-0.458,7.971
	c1.069,2.16,7.848,17.487,7.693,18.775C27.219,40.313,25.334,40.848,24.589,39.567C21.79,34.768,24.952,40.192,24.589,39.567z"/>
</svg>
